<svg width="120" height="47" viewBox="0 0 120 47" fill="none" xmlns="http://www.w3.org/2000/svg">
<path d="M8.48804 46L24.493 1.78H26.253L10.248 46H8.48804ZM0.788042 46L16.793 1.78H18.498L2.54804 46H0.788042ZM4.63804 46L20.588 1.78H22.403L6.39804 46H4.63804ZM40.718 46L26.363 6.345L27.243 3.87L42.478 46H40.718ZM36.868 46L24.493 11.735L25.318 9.205L38.628 46H36.868ZM33.018 46L22.568 17.07L23.448 14.595L34.778 46H33.018ZM17.453 31.37L18.058 29.72H25.318L25.923 31.37H17.453ZM16.133 35.055L16.738 33.405H26.638L27.243 35.055H16.133ZM14.813 38.685L15.418 37.035H27.958L28.563 38.685H14.813ZM53.5799 46V1.78H55.2299V46H53.5799ZM46.3199 46V1.78H47.9699V46H46.3199ZM49.9499 46V1.78H51.5999V46H49.9499ZM57.2099 27.52V25.87H70.1349C72.2249 25.87 74.1132 25.4117 75.7999 24.495C77.5232 23.5783 78.8799 22.2767 79.8699 20.59C80.8965 18.9033 81.4099 16.9233 81.4099 14.65C81.4099 12.3767 80.8965 10.3967 79.8699 8.71C78.8799 7.02333 77.5232 5.72167 75.7999 4.805C74.1132 3.88833 72.2249 3.43 70.1349 3.43H57.2099V1.78H70.1349C72.5182 1.78 74.6815 2.33 76.6249 3.43C78.6049 4.49333 80.1632 5.99666 81.2999 7.94C82.4732 9.84666 83.0599 12.0833 83.0599 14.65C83.0599 17.2167 82.4732 19.4717 81.2999 21.415C80.1632 23.3217 78.6049 24.825 76.6249 25.925C74.6815 26.9883 72.5182 27.52 70.1349 27.52H57.2099ZM57.2099 23.89V22.24H70.1349C72.2615 22.24 74.0582 21.58 75.5249 20.26C77.0282 18.9033 77.7799 17.0333 77.7799 14.65C77.7799 12.2667 77.0282 10.415 75.5249 9.095C74.0582 7.73833 72.2615 7.06 70.1349 7.06H57.2099V5.41H70.1349C71.8582 5.41 73.4165 5.795 74.8099 6.565C76.2032 7.29833 77.3215 8.36166 78.1649 9.755C79.0082 11.1117 79.4299 12.7433 79.4299 14.65C79.4299 16.5567 79.0082 18.2067 78.1649 19.6C77.3215 20.9567 76.2032 22.02 74.8099 22.79C73.4165 23.5233 71.8582 23.89 70.1349 23.89H57.2099ZM57.2099 20.26V18.61H70.1349C71.2349 18.61 72.1699 18.2983 72.9399 17.675C73.7465 17.015 74.1499 16.0067 74.1499 14.65C74.1499 13.2567 73.7465 12.2483 72.9399 11.625C72.1699 11.0017 71.2349 10.69 70.1349 10.69H57.2099V9.04H70.1349C71.7115 9.04 73.0499 9.51666 74.1499 10.47C75.2499 11.4233 75.7999 12.8167 75.7999 14.65C75.7999 16.4833 75.2499 17.8767 74.1499 18.83C73.0499 19.7833 71.7115 20.26 70.1349 20.26H57.2099ZM102.429 39.565C99.8256 39.565 97.6806 39.07 95.9939 38.08C94.3072 37.0533 93.3906 35.6967 93.2439 34.01L94.8389 33.57C94.8389 34.8167 95.5356 35.8617 96.9289 36.705C98.3589 37.5117 100.192 37.915 102.429 37.915C104.739 37.915 106.609 37.4933 108.039 36.65C109.506 35.8067 110.239 34.725 110.239 33.405C110.239 32.1583 109.634 31.15 108.424 30.38C107.214 29.61 105.564 28.9317 103.474 28.345L100.064 27.355C95.5172 26.035 92.0889 24.3667 89.7789 22.35C87.4689 20.3333 86.3139 17.565 86.3139 14.045C86.3139 11.515 87.0106 9.27833 88.4039 7.335C89.8339 5.355 91.7589 3.79666 94.1789 2.66C96.6356 1.52333 99.4039 0.954996 102.484 0.954996C105.271 0.954996 107.782 1.41333 110.019 2.33C112.292 3.21 114.162 4.475 115.629 6.125C117.132 7.775 118.086 9.7 118.489 11.9L116.894 12.34C116.564 10.3967 115.739 8.69167 114.419 7.225C113.099 5.75833 111.412 4.62166 109.359 3.815C107.306 3.00833 105.014 2.605 102.484 2.605C99.6972 2.605 97.2039 3.11833 95.0039 4.145C92.8406 5.135 91.1172 6.49167 89.8339 8.215C88.5872 9.93833 87.9639 11.9183 87.9639 14.155C87.9639 17.1617 89.0089 19.5817 91.0989 21.415C93.2256 23.2117 96.3606 24.6783 100.504 25.815L103.914 26.75C106.444 27.4467 108.406 28.29 109.799 29.28C111.192 30.27 111.889 31.6083 111.889 33.295C111.889 35.165 111.027 36.6867 109.304 37.86C107.581 38.9967 105.289 39.565 102.429 39.565ZM102.429 43.195C98.9822 43.195 96.0856 42.4433 93.7389 40.94C91.4289 39.4 90.0722 37.4017 89.6689 34.945L91.3189 34.505C91.6122 36.6317 92.7489 38.3367 94.7289 39.62C96.7456 40.9033 99.3122 41.545 102.429 41.545C104.702 41.545 106.701 41.1967 108.424 40.5C110.147 39.8033 111.486 38.8317 112.439 37.585C113.392 36.3383 113.869 34.9083 113.869 33.295C113.869 31.0583 113.026 29.2983 111.339 28.015C109.652 26.695 107.324 25.6317 104.354 24.825L100.999 23.89C97.4422 22.9 94.7106 21.6533 92.8039 20.15C90.8972 18.6467 89.9439 16.6483 89.9439 14.155C89.9439 12.285 90.4756 10.635 91.5389 9.205C92.6389 7.775 94.1422 6.65667 96.0489 5.85C97.9556 5.00667 100.101 4.585 102.484 4.585C104.721 4.585 106.719 4.93333 108.479 5.63C110.276 6.29 111.742 7.24333 112.879 8.49C114.016 9.73667 114.712 11.185 114.969 12.835L113.319 13.275C113.062 11.1483 111.926 9.44333 109.909 8.16C107.929 6.87666 105.454 6.235 102.484 6.235C100.394 6.235 98.5239 6.58333 96.8739 7.28C95.2239 7.94 93.9222 8.875 92.9689 10.085C92.0522 11.2583 91.5939 12.615 91.5939 14.155C91.5939 16.245 92.4189 17.895 94.0689 19.105C95.7556 20.315 98.1939 21.3783 101.384 22.295L104.684 23.23C108.094 24.1833 110.752 25.4483 112.659 27.025C114.566 28.565 115.519 30.655 115.519 33.295C115.519 35.2383 114.969 36.9617 113.869 38.465C112.769 39.9317 111.229 41.0867 109.249 41.93C107.306 42.7733 105.032 43.195 102.429 43.195ZM102.429 46.825C99.5689 46.825 96.9839 46.385 94.6739 45.505C92.4006 44.5883 90.5122 43.3233 89.0089 41.71C87.5422 40.06 86.5889 38.1167 86.1489 35.88L87.7439 35.44C88.1106 37.42 88.9356 39.1433 90.2189 40.61C91.5389 42.04 93.2439 43.1583 95.3339 43.965C97.4239 44.7717 99.7889 45.175 102.429 45.175C105.436 45.175 108.057 44.68 110.294 43.69C112.567 42.6633 114.327 41.27 115.574 39.51C116.857 37.7133 117.499 35.6417 117.499 33.295C117.499 30.1783 116.417 27.685 114.254 25.815C112.091 23.945 109.047 22.4417 105.124 21.305L101.879 20.37C99.2022 19.6 97.1489 18.7567 95.7189 17.84C94.2889 16.9233 93.5739 15.695 93.5739 14.155C93.5739 12.3583 94.4172 10.9283 96.1039 9.865C97.7906 8.765 99.9172 8.215 102.484 8.215C104.977 8.215 107.031 8.72833 108.644 9.755C110.257 10.7817 111.174 12.12 111.394 13.77L109.799 14.21C109.726 12.9267 109.011 11.8817 107.654 11.075C106.334 10.2683 104.611 9.865 102.484 9.865C100.467 9.865 98.7439 10.25 97.3139 11.02C95.9206 11.79 95.2239 12.7983 95.2239 14.045C95.2239 15.1817 95.8656 16.0983 97.1489 16.795C98.4689 17.4917 100.192 18.1517 102.319 18.775L105.454 19.71C109.891 21.03 113.282 22.7533 115.629 24.88C117.976 26.97 119.149 29.8117 119.149 33.405C119.149 36.0083 118.434 38.3367 117.004 40.39C115.611 42.4067 113.649 43.9833 111.119 45.12C108.626 46.2567 105.729 46.825 102.429 46.825Z" fill="white"/>
</svg>
