<svg width="70" height="28" viewBox="0 0 70 28" fill="none" xmlns="http://www.w3.org/2000/svg">
<path d="M4.90125 27L14.2133 1.272H15.2373L5.92525 27H4.90125ZM0.42125 27L9.73325 1.272H10.7253L1.44525 27H0.42125ZM2.66125 27L11.9413 1.272H12.9973L3.68525 27H2.66125ZM23.6533 27L15.3013 3.928L15.8133 2.488L24.6773 27H23.6533ZM21.4133 27L14.2133 7.064L14.6933 5.592L22.4373 27H21.4133ZM19.1733 27L13.0933 10.168L13.6053 8.728L20.1973 27H19.1733ZM10.1173 18.488L10.4693 17.528H14.6933L15.0453 18.488H10.1173ZM9.34925 20.632L9.70125 19.672H15.4613L15.8133 20.632H9.34925ZM8.58125 22.744L8.93325 21.784H16.2292L16.5813 22.744H8.58125ZM31.1365 27V1.272H32.0965V27H31.1365ZM26.9125 27V1.272H27.8725V27H26.9125ZM29.0245 27V1.272H29.9845V27H29.0245ZM33.2485 16.248V15.288H40.7685C41.9845 15.288 43.0832 15.0213 44.0645 14.488C45.0672 13.9547 45.8565 13.1973 46.4325 12.216C47.0298 11.2347 47.3285 10.0827 47.3285 8.76C47.3285 7.43733 47.0298 6.28533 46.4325 5.304C45.8565 4.32267 45.0672 3.56533 44.0645 3.032C43.0832 2.49867 41.9845 2.232 40.7685 2.232H33.2485V1.272H40.7685C42.1552 1.272 43.4138 1.592 44.5445 2.232C45.6965 2.85066 46.6032 3.72533 47.2645 4.856C47.9472 5.96533 48.2885 7.26667 48.2885 8.76C48.2885 10.2533 47.9472 11.5653 47.2645 12.696C46.6032 13.8053 45.6965 14.68 44.5445 15.32C43.4138 15.9387 42.1552 16.248 40.7685 16.248H33.2485ZM33.2485 14.136V13.176H40.7685C42.0058 13.176 43.0512 12.792 43.9045 12.024C44.7792 11.2347 45.2165 10.1467 45.2165 8.76C45.2165 7.37333 44.7792 6.296 43.9045 5.528C43.0512 4.73867 42.0058 4.344 40.7685 4.344H33.2485V3.384H40.7685C41.7712 3.384 42.6778 3.608 43.4885 4.056C44.2992 4.48267 44.9498 5.10133 45.4405 5.912C45.9312 6.70133 46.1765 7.65067 46.1765 8.76C46.1765 9.86933 45.9312 10.8293 45.4405 11.64C44.9498 12.4293 44.2992 13.048 43.4885 13.496C42.6778 13.9227 41.7712 14.136 40.7685 14.136H33.2485ZM33.2485 12.024V11.064H40.7685C41.4085 11.064 41.9525 10.8827 42.4005 10.52C42.8698 10.136 43.1045 9.54933 43.1045 8.76C43.1045 7.94933 42.8698 7.36267 42.4005 7C41.9525 6.63733 41.4085 6.456 40.7685 6.456H33.2485V5.496H40.7685C41.6858 5.496 42.4645 5.77333 43.1045 6.328C43.7445 6.88267 44.0645 7.69333 44.0645 8.76C44.0645 9.82667 43.7445 10.6373 43.1045 11.192C42.4645 11.7467 41.6858 12.024 40.7685 12.024H33.2485ZM59.5578 23.256C58.0431 23.256 56.7951 22.968 55.8138 22.392C54.8324 21.7947 54.2991 21.0053 54.2138 20.024L55.1418 19.768C55.1418 20.4933 55.5471 21.1013 56.3578 21.592C57.1898 22.0613 58.2564 22.296 59.5578 22.296C60.9018 22.296 61.9898 22.0507 62.8218 21.56C63.6751 21.0693 64.1018 20.44 64.1018 19.672C64.1018 18.9467 63.7498 18.36 63.0458 17.912C62.3418 17.464 61.3818 17.0693 60.1658 16.728L58.1818 16.152C55.5364 15.384 53.5418 14.4133 52.1978 13.24C50.8538 12.0667 50.1818 10.456 50.1818 8.408C50.1818 6.936 50.5871 5.63467 51.3978 4.504C52.2298 3.352 53.3498 2.44533 54.7578 1.784C56.1871 1.12266 57.7978 0.791998 59.5898 0.791998C61.2111 0.791998 62.6724 1.05866 63.9738 1.592C65.2964 2.104 66.3844 2.84 67.2378 3.8C68.1124 4.76 68.6671 5.88 68.9018 7.16L67.9738 7.416C67.7818 6.28533 67.3018 5.29333 66.5338 4.44C65.7658 3.58666 64.7844 2.92533 63.5898 2.456C62.3951 1.98667 61.0618 1.752 59.5898 1.752C57.9684 1.752 56.5178 2.05067 55.2378 2.648C53.9791 3.224 52.9764 4.01333 52.2298 5.016C51.5044 6.01867 51.1418 7.17067 51.1418 8.472C51.1418 10.2213 51.7498 11.6293 52.9658 12.696C54.2031 13.7413 56.0271 14.5947 58.4378 15.256L60.4218 15.8C61.8938 16.2053 63.0351 16.696 63.8458 17.272C64.6564 17.848 65.0618 18.6267 65.0618 19.608C65.0618 20.696 64.5604 21.5813 63.5578 22.264C62.5551 22.9253 61.2218 23.256 59.5578 23.256ZM59.5578 25.368C57.5524 25.368 55.8671 24.9307 54.5018 24.056C53.1578 23.16 52.3684 21.9973 52.1338 20.568L53.0938 20.312C53.2644 21.5493 53.9258 22.5413 55.0778 23.288C56.2511 24.0347 57.7444 24.408 59.5578 24.408C60.8804 24.408 62.0431 24.2053 63.0458 23.8C64.0484 23.3947 64.8271 22.8293 65.3818 22.104C65.9364 21.3787 66.2138 20.5467 66.2138 19.608C66.2138 18.3067 65.7231 17.2827 64.7418 16.536C63.7604 15.768 62.4058 15.1493 60.6778 14.68L58.7258 14.136C56.6564 13.56 55.0671 12.8347 53.9578 11.96C52.8484 11.0853 52.2938 9.92267 52.2938 8.472C52.2938 7.384 52.6031 6.424 53.2218 5.592C53.8618 4.76 54.7364 4.10933 55.8458 3.64C56.9551 3.14933 58.2031 2.904 59.5898 2.904C60.8911 2.904 62.0538 3.10667 63.0778 3.512C64.1231 3.896 64.9764 4.45067 65.6378 5.176C66.2991 5.90133 66.7044 6.744 66.8538 7.704L65.8938 7.96C65.7444 6.72267 65.0831 5.73067 63.9098 4.984C62.7578 4.23733 61.3178 3.864 59.5898 3.864C58.3738 3.864 57.2858 4.06667 56.3258 4.472C55.3658 4.856 54.6084 5.4 54.0538 6.104C53.5204 6.78666 53.2538 7.576 53.2538 8.472C53.2538 9.688 53.7338 10.648 54.6938 11.352C55.6751 12.056 57.0938 12.6747 58.9498 13.208L60.8698 13.752C62.8538 14.3067 64.4004 15.0427 65.5098 15.96C66.6191 16.856 67.1737 18.072 67.1737 19.608C67.1737 20.7387 66.8538 21.7413 66.2138 22.616C65.5738 23.4693 64.6778 24.1413 63.5258 24.632C62.3951 25.1227 61.0724 25.368 59.5578 25.368ZM59.5578 27.48C57.8938 27.48 56.3898 27.224 55.0458 26.712C53.7231 26.1787 52.6244 25.4427 51.7498 24.504C50.8964 23.544 50.3418 22.4133 50.0858 21.112L51.0138 20.856C51.2271 22.008 51.7071 23.0107 52.4538 23.864C53.2218 24.696 54.2138 25.3467 55.4298 25.816C56.6458 26.2853 58.0218 26.52 59.5578 26.52C61.3071 26.52 62.8324 26.232 64.1338 25.656C65.4564 25.0587 66.4804 24.248 67.2058 23.224C67.9524 22.1787 68.3258 20.9733 68.3258 19.608C68.3258 17.7947 67.6964 16.344 66.4378 15.256C65.1791 14.168 63.4084 13.2933 61.1258 12.632L59.2378 12.088C57.6804 11.64 56.4858 11.1493 55.6538 10.616C54.8218 10.0827 54.4058 9.368 54.4058 8.472C54.4058 7.42667 54.8964 6.59467 55.8778 5.976C56.8591 5.336 58.0964 5.016 59.5898 5.016C61.0404 5.016 62.2351 5.31467 63.1738 5.912C64.1124 6.50933 64.6458 7.288 64.7738 8.248L63.8458 8.504C63.8031 7.75733 63.3871 7.14933 62.5978 6.68C61.8298 6.21067 60.8271 5.976 59.5898 5.976C58.4164 5.976 57.4138 6.2 56.5818 6.648C55.7711 7.096 55.3658 7.68267 55.3658 8.408C55.3658 9.06933 55.7391 9.60267 56.4858 10.008C57.2538 10.4133 58.2564 10.7973 59.4938 11.16L61.3178 11.704C63.8991 12.472 65.8724 13.4747 67.2378 14.712C68.6031 15.928 69.2858 17.5813 69.2858 19.672C69.2858 21.1867 68.8698 22.5413 68.0378 23.736C67.2271 24.9093 66.0858 25.8267 64.6138 26.488C63.1631 27.1493 61.4778 27.48 59.5578 27.48Z" fill="#3B82F6"/>
</svg>
