<svg width="180" height="180" viewBox="0 0 180 180" fill="none" xmlns="http://www.w3.org/2000/svg">
<g clip-path="url(#clip0_48_4)">
<path d="M90 0L167.942 45V135L90 180L12.0577 135V45L90 0Z" fill="#3B82F6"/>
<path d="M38.6881 109.7L54.6931 65.48H56.4531L40.4481 109.7H38.6881ZM30.9881 109.7L46.9931 65.48H48.6981L32.7481 109.7H30.9881ZM34.8381 109.7L50.7881 65.48H52.6031L36.5981 109.7H34.8381ZM70.9181 109.7L56.5631 70.045L57.4431 67.57L72.6781 109.7H70.9181ZM67.0681 109.7L54.6931 75.435L55.5181 72.905L68.8281 109.7H67.0681ZM63.2181 109.7L52.7681 80.77L53.6481 78.295L64.9781 109.7H63.2181ZM47.6531 95.07L48.2581 93.42H55.5181L56.1231 95.07H47.6531ZM46.3331 98.755L46.9381 97.105H56.8381L57.4431 98.755H46.3331ZM45.0131 102.385L45.6181 100.735H58.1581L58.7631 102.385H45.0131ZM83.7799 109.7V65.48H85.4299V109.7H83.7799ZM76.5199 109.7V65.48H78.1699V109.7H76.5199ZM80.1499 109.7V65.48H81.7999V109.7H80.1499ZM87.4099 91.22V89.57H100.335C102.425 89.57 104.313 89.1117 106 88.195C107.723 87.2783 109.08 85.9767 110.07 84.29C111.097 82.6033 111.61 80.6233 111.61 78.35C111.61 76.0767 111.097 74.0967 110.07 72.41C109.08 70.7233 107.723 69.4217 106 68.505C104.313 67.5883 102.425 67.13 100.335 67.13H87.4099V65.48H100.335C102.718 65.48 104.882 66.03 106.825 67.13C108.805 68.1933 110.363 69.6967 111.5 71.64C112.673 73.5467 113.26 75.7833 113.26 78.35C113.26 80.9167 112.673 83.1717 111.5 85.115C110.363 87.0217 108.805 88.525 106.825 89.625C104.882 90.6883 102.718 91.22 100.335 91.22H87.4099ZM87.4099 87.59V85.94H100.335C102.462 85.94 104.258 85.28 105.725 83.96C107.228 82.6033 107.98 80.7333 107.98 78.35C107.98 75.9667 107.228 74.115 105.725 72.795C104.258 71.4383 102.462 70.76 100.335 70.76H87.4099V69.11H100.335C102.058 69.11 103.617 69.495 105.01 70.265C106.403 70.9983 107.522 72.0617 108.365 73.455C109.208 74.8117 109.63 76.4433 109.63 78.35C109.63 80.2567 109.208 81.9067 108.365 83.3C107.522 84.6567 106.403 85.72 105.01 86.49C103.617 87.2233 102.058 87.59 100.335 87.59H87.4099ZM87.4099 83.96V82.31H100.335C101.435 82.31 102.37 81.9983 103.14 81.375C103.947 80.715 104.35 79.7067 104.35 78.35C104.35 76.9567 103.947 75.9483 103.14 75.325C102.37 74.7017 101.435 74.39 100.335 74.39H87.4099V72.74H100.335C101.912 72.74 103.25 73.2167 104.35 74.17C105.45 75.1233 106 76.5167 106 78.35C106 80.1833 105.45 81.5767 104.35 82.53C103.25 83.4833 101.912 83.96 100.335 83.96H87.4099ZM132.629 103.265C130.026 103.265 127.881 102.77 126.194 101.78C124.507 100.753 123.591 99.3967 123.444 97.71L125.039 97.27C125.039 98.5167 125.736 99.5617 127.129 100.405C128.559 101.212 130.392 101.615 132.629 101.615C134.939 101.615 136.809 101.193 138.239 100.35C139.706 99.5067 140.439 98.425 140.439 97.105C140.439 95.8583 139.834 94.85 138.624 94.08C137.414 93.31 135.764 92.6317 133.674 92.045L130.264 91.055C125.717 89.735 122.289 88.0667 119.979 86.05C117.669 84.0333 116.514 81.265 116.514 77.745C116.514 75.215 117.211 72.9783 118.604 71.035C120.034 69.055 121.959 67.4967 124.379 66.36C126.836 65.2233 129.604 64.655 132.684 64.655C135.471 64.655 137.982 65.1133 140.219 66.03C142.492 66.91 144.362 68.175 145.829 69.825C147.332 71.475 148.286 73.4 148.689 75.6L147.094 76.04C146.764 74.0967 145.939 72.3917 144.619 70.925C143.299 69.4583 141.612 68.3217 139.559 67.515C137.506 66.7083 135.214 66.305 132.684 66.305C129.897 66.305 127.404 66.8183 125.204 67.845C123.041 68.835 121.317 70.1917 120.034 71.915C118.787 73.6383 118.164 75.6183 118.164 77.855C118.164 80.8617 119.209 83.2817 121.299 85.115C123.426 86.9117 126.561 88.3783 130.704 89.515L134.114 90.45C136.644 91.1467 138.606 91.99 139.999 92.98C141.392 93.97 142.089 95.3083 142.089 96.995C142.089 98.865 141.227 100.387 139.504 101.56C137.781 102.697 135.489 103.265 132.629 103.265ZM132.629 106.895C129.182 106.895 126.286 106.143 123.939 104.64C121.629 103.1 120.272 101.102 119.869 98.645L121.519 98.205C121.812 100.332 122.949 102.037 124.929 103.32C126.946 104.603 129.512 105.245 132.629 105.245C134.902 105.245 136.901 104.897 138.624 104.2C140.347 103.503 141.686 102.532 142.639 101.285C143.592 100.038 144.069 98.6083 144.069 96.995C144.069 94.7583 143.226 92.9983 141.539 91.715C139.852 90.395 137.524 89.3317 134.554 88.525L131.199 87.59C127.642 86.6 124.911 85.3533 123.004 83.85C121.097 82.3467 120.144 80.3483 120.144 77.855C120.144 75.985 120.676 74.335 121.739 72.905C122.839 71.475 124.342 70.3567 126.249 69.55C128.156 68.7067 130.301 68.285 132.684 68.285C134.921 68.285 136.919 68.6333 138.679 69.33C140.476 69.99 141.942 70.9433 143.079 72.19C144.216 73.4367 144.912 74.885 145.169 76.535L143.519 76.975C143.262 74.8483 142.126 73.1433 140.109 71.86C138.129 70.5767 135.654 69.935 132.684 69.935C130.594 69.935 128.724 70.2833 127.074 70.98C125.424 71.64 124.122 72.575 123.169 73.785C122.252 74.9583 121.794 76.315 121.794 77.855C121.794 79.945 122.619 81.595 124.269 82.805C125.956 84.015 128.394 85.0783 131.584 85.995L134.884 86.93C138.294 87.8833 140.952 89.1483 142.859 90.725C144.766 92.265 145.719 94.355 145.719 96.995C145.719 98.9383 145.169 100.662 144.069 102.165C142.969 103.632 141.429 104.787 139.449 105.63C137.506 106.473 135.232 106.895 132.629 106.895ZM132.629 110.525C129.769 110.525 127.184 110.085 124.874 109.205C122.601 108.288 120.712 107.023 119.209 105.41C117.742 103.76 116.789 101.817 116.349 99.58L117.944 99.14C118.311 101.12 119.136 102.843 120.419 104.31C121.739 105.74 123.444 106.858 125.534 107.665C127.624 108.472 129.989 108.875 132.629 108.875C135.636 108.875 138.257 108.38 140.494 107.39C142.767 106.363 144.527 104.97 145.774 103.21C147.057 101.413 147.699 99.3417 147.699 96.995C147.699 93.8783 146.617 91.385 144.454 89.515C142.291 87.645 139.247 86.1417 135.324 85.005L132.079 84.07C129.402 83.3 127.349 82.4567 125.919 81.54C124.489 80.6233 123.774 79.395 123.774 77.855C123.774 76.0583 124.617 74.6283 126.304 73.565C127.991 72.465 130.117 71.915 132.684 71.915C135.177 71.915 137.231 72.4283 138.844 73.455C140.457 74.4817 141.374 75.82 141.594 77.47L139.999 77.91C139.926 76.6267 139.211 75.5817 137.854 74.775C136.534 73.9683 134.811 73.565 132.684 73.565C130.667 73.565 128.944 73.95 127.514 74.72C126.121 75.49 125.424 76.4983 125.424 77.745C125.424 78.8817 126.066 79.7983 127.349 80.495C128.669 81.1917 130.392 81.8517 132.519 82.475L135.654 83.41C140.091 84.73 143.482 86.4533 145.829 88.58C148.176 90.67 149.349 93.5117 149.349 97.105C149.349 99.7083 148.634 102.037 147.204 104.09C145.811 106.107 143.849 107.683 141.319 108.82C138.826 109.957 135.929 110.525 132.629 110.525Z" fill="white"/>
</g>
<defs>
<clipPath id="clip0_48_4">
<rect width="180" height="180" fill="white"/>
</clipPath>
</defs>
</svg>
