<svg width="454" height="412" viewBox="0 0 454 412" fill="none" xmlns="http://www.w3.org/2000/svg">
<path d="M227 0L423.588 103V309L227 412L30.4122 309V103L227 0Z" fill="#3B82F6"/>
<path d="M106.105 250L143.353 147.088H147.449L110.201 250H106.105ZM88.185 250L125.433 147.088H129.401L92.281 250H88.185ZM97.145 250L134.265 147.088H138.489L101.241 250H97.145ZM181.113 250L147.705 157.712L149.753 151.952L185.209 250H181.113ZM172.153 250L143.353 170.256L145.273 164.368L176.249 250H172.153ZM163.193 250L138.873 182.672L140.921 176.912L167.289 250H163.193ZM126.969 215.952L128.377 212.112H145.273L146.681 215.952H126.969ZM123.897 224.528L125.305 220.688H148.345L149.753 224.528H123.897ZM120.825 232.976L122.233 229.136H151.417L152.825 232.976H120.825ZM211.046 250V147.088H214.886V250H211.046ZM194.15 250V147.088H197.99V250H194.15ZM202.598 250V147.088H206.438V250H202.598ZM219.494 206.992V203.152H249.574C254.438 203.152 258.833 202.085 262.758 199.952C266.769 197.819 269.926 194.789 272.23 190.864C274.619 186.939 275.814 182.331 275.814 177.04C275.814 171.749 274.619 167.141 272.23 163.216C269.926 159.291 266.769 156.261 262.758 154.128C258.833 151.995 254.438 150.928 249.574 150.928H219.494V147.088H249.574C255.121 147.088 260.155 148.368 264.678 150.928C269.286 153.403 272.913 156.901 275.558 161.424C278.289 165.861 279.654 171.067 279.654 177.04C279.654 183.013 278.289 188.261 275.558 192.784C272.913 197.221 269.286 200.72 264.678 203.28C260.155 205.755 255.121 206.992 249.574 206.992H219.494ZM219.494 198.544V194.704H249.574C254.523 194.704 258.705 193.168 262.118 190.096C265.617 186.939 267.366 182.587 267.366 177.04C267.366 171.493 265.617 167.184 262.118 164.112C258.705 160.955 254.523 159.376 249.574 159.376H219.494V155.536H249.574C253.585 155.536 257.211 156.432 260.454 158.224C263.697 159.931 266.299 162.405 268.262 165.648C270.225 168.805 271.206 172.603 271.206 177.04C271.206 181.477 270.225 185.317 268.262 188.56C266.299 191.717 263.697 194.192 260.454 195.984C257.211 197.691 253.585 198.544 249.574 198.544H219.494ZM219.494 190.096V186.256H249.574C252.134 186.256 254.31 185.531 256.102 184.08C257.979 182.544 258.918 180.197 258.918 177.04C258.918 173.797 257.979 171.451 256.102 170C254.31 168.549 252.134 167.824 249.574 167.824H219.494V163.984H249.574C253.243 163.984 256.358 165.093 258.918 167.312C261.478 169.531 262.758 172.773 262.758 177.04C262.758 181.307 261.478 184.549 258.918 186.768C256.358 188.987 253.243 190.096 249.574 190.096H219.494ZM324.731 235.024C318.672 235.024 313.68 233.872 309.755 231.568C305.83 229.179 303.696 226.021 303.355 222.096L307.067 221.072C307.067 223.973 308.688 226.405 311.931 228.368C315.259 230.245 319.526 231.184 324.731 231.184C330.107 231.184 334.459 230.203 337.787 228.24C341.2 226.277 342.907 223.76 342.907 220.688C342.907 217.787 341.499 215.44 338.683 213.648C335.867 211.856 332.027 210.277 327.163 208.912L319.227 206.608C308.646 203.536 300.667 199.653 295.291 194.96C289.915 190.267 287.227 183.824 287.227 175.632C287.227 169.744 288.848 164.539 292.091 160.016C295.419 155.408 299.899 151.781 305.531 149.136C311.248 146.491 317.691 145.168 324.859 145.168C331.344 145.168 337.19 146.235 342.395 148.368C347.686 150.416 352.038 153.36 355.451 157.2C358.95 161.04 361.168 165.52 362.107 170.64L358.395 171.664C357.627 167.141 355.707 163.173 352.635 159.76C349.563 156.347 345.638 153.701 340.859 151.824C336.08 149.947 330.747 149.008 324.859 149.008C318.374 149.008 312.571 150.203 307.451 152.592C302.416 154.896 298.406 158.053 295.419 162.064C292.518 166.075 291.067 170.683 291.067 175.888C291.067 182.885 293.499 188.517 298.363 192.784C303.312 196.965 310.608 200.379 320.251 203.024L328.187 205.2C334.075 206.821 338.64 208.784 341.883 211.088C345.126 213.392 346.747 216.507 346.747 220.432C346.747 224.784 344.742 228.325 340.731 231.056C336.72 233.701 331.387 235.024 324.731 235.024ZM324.731 243.472C316.71 243.472 309.968 241.723 304.507 238.224C299.131 234.64 295.974 229.989 295.035 224.272L298.875 223.248C299.558 228.197 302.203 232.165 306.811 235.152C311.504 238.139 317.478 239.632 324.731 239.632C330.022 239.632 334.672 238.821 338.683 237.2C342.694 235.579 345.808 233.317 348.027 230.416C350.246 227.515 351.355 224.187 351.355 220.432C351.355 215.227 349.392 211.131 345.467 208.144C341.542 205.072 336.123 202.597 329.211 200.72L321.403 198.544C313.126 196.24 306.768 193.339 302.331 189.84C297.894 186.341 295.675 181.691 295.675 175.888C295.675 171.536 296.912 167.696 299.387 164.368C301.947 161.04 305.446 158.437 309.883 156.56C314.32 154.597 319.312 153.616 324.859 153.616C330.064 153.616 334.715 154.427 338.811 156.048C342.992 157.584 346.406 159.803 349.051 162.704C351.696 165.605 353.318 168.976 353.915 172.816L350.075 173.84C349.478 168.891 346.832 164.923 342.139 161.936C337.531 158.949 331.771 157.456 324.859 157.456C319.995 157.456 315.643 158.267 311.803 159.888C307.963 161.424 304.934 163.6 302.715 166.416C300.582 169.147 299.515 172.304 299.515 175.888C299.515 180.752 301.435 184.592 305.275 187.408C309.2 190.224 314.875 192.699 322.299 194.832L329.979 197.008C337.915 199.227 344.102 202.171 348.539 205.84C352.976 209.424 355.195 214.288 355.195 220.432C355.195 224.955 353.915 228.965 351.355 232.464C348.795 235.877 345.211 238.565 340.603 240.528C336.08 242.491 330.79 243.472 324.731 243.472ZM324.731 251.92C318.075 251.92 312.059 250.896 306.683 248.848C301.392 246.715 296.998 243.771 293.499 240.016C290.086 236.176 287.867 231.653 286.843 226.448L290.555 225.424C291.408 230.032 293.328 234.043 296.315 237.456C299.387 240.784 303.355 243.387 308.219 245.264C313.083 247.141 318.587 248.08 324.731 248.08C331.728 248.08 337.83 246.928 343.035 244.624C348.326 242.235 352.422 238.992 355.323 234.896C358.31 230.715 359.803 225.893 359.803 220.432C359.803 213.179 357.286 207.376 352.251 203.024C347.216 198.672 340.134 195.173 331.003 192.528L323.451 190.352C317.222 188.56 312.443 186.597 309.115 184.464C305.787 182.331 304.123 179.472 304.123 175.888C304.123 171.707 306.086 168.379 310.011 165.904C313.936 163.344 318.886 162.064 324.859 162.064C330.662 162.064 335.44 163.259 339.195 165.648C342.95 168.037 345.083 171.152 345.595 174.992L341.883 176.016C341.712 173.029 340.048 170.597 336.891 168.72C333.819 166.843 329.808 165.904 324.859 165.904C320.166 165.904 316.155 166.8 312.827 168.592C309.584 170.384 307.963 172.731 307.963 175.632C307.963 178.277 309.456 180.411 312.443 182.032C315.515 183.653 319.526 185.189 324.475 186.64L331.771 188.816C342.096 191.888 349.99 195.899 355.451 200.848C360.912 205.712 363.643 212.325 363.643 220.688C363.643 226.747 361.979 232.165 358.651 236.944C355.408 241.637 350.843 245.307 344.955 247.952C339.152 250.597 332.411 251.92 324.731 251.92Z" fill="white"/>
</svg>
